<svg width="425" height="307" viewBox="0 0 425 307" fill="none" xmlns="http://www.w3.org/2000/svg" class="big-mark"><path d="M0.44 173.7C0.28759 173.791 0.14067 173.891 0 174L0.44 173.7Z" fill="#DCFE54"></path><path d="M227.87 127.14L227.66 127.41L227.87 127.14Z" fill="#DCFE54"></path><path d="M205 140.11C205.87 139.68 216.29 132.99 211.43 135.34C204.53 138.65 203.08 141 205 140.11Z" fill="#DCFE54"></path><path d="M187.3 149.87C189.08 150.17 189.3 148.55 187.3 149.87V149.87Z" fill="#DCFE54"></path><path d="M187.3 149.87C170.9 156.87 166.85 163.3 187.3 149.87V149.87Z" fill="#DCFE54"></path><path d="M150.53 170.92C151.81 170.34 163.11 163.02 158.64 165.05C150.8 168.57 148.28 171.93 150.53 170.92Z" fill="#DCFE54"></path><path d="M13.1798 243.71L13.0698 243.91L13.1798 243.71Z" fill="#DCFE54"></path><path d="M423.54 172.27C423.95 173.12 422.26 171.5 420.54 168.9C421.39 170.15 419.17 165.56 419.92 166.99C419.92 165.76 403.92 144.11 400.36 139.99C397.55 136.93 396.29 138.43 395.12 139.23C392.38 141.08 393.12 148.28 389.53 149.56C389.08 150.11 389.38 151 388.33 151.05L387.26 147.87C382.26 148.1 378.26 153.19 375.61 153.79C384.23 144.35 364.61 158.89 358.67 160.54C370.74 148.63 328.44 172.32 326.84 172.23C329.69 171.31 330.79 169.17 331.28 168.95C324.28 171.81 322.51 174.95 316.28 175.23C316.1 174.58 313.91 175.68 313.28 175.75C283.76 181.48 254.18 187.41 225.28 193.32C198.55 197.58 170.33 208.39 145.41 207.57C145.72 211.88 138.77 211.24 133.88 212.57C221.13 158 310.4 102.57 392 39.55C289.68 71.69 184.06 99.29 81.8999 132C123 94.29 184.42 46.85 223.19 13.87C221.27 15.87 213.54 21.05 214.38 19.08C214.38 19.52 224.46 10.08 223.91 10.69C230.25 4.44001 229.37 5.81001 226.09 2.88001C225.97 2.77001 223.28 4.15001 223.43 3.16001C223.52 2.61001 226.66 -0.0299905 225.85 9.51876e-06C225.34 9.51876e-06 214.23 4.88001 215.24 4.15001C173.71 33.46 36.3299 146.23 0.439941 173.7C106.44 134.94 211.27 109.7 311.1 77.97C299.05 82.21 306.53 80.33 315.83 77.25C310.31 80.8 304.1 84.57 301.9 85.25C303.751 84.4427 305.378 83.1968 306.64 81.62C300.77 85.22 291.37 92.49 284.84 95.94C213.38 135.43 100.23 205.67 9.44994 249.59L20.1499 274.15C69.2599 259.53 120.2 248.78 170 237.79C159.874 242.058 150.007 246.916 140.45 252.34C133.64 256.46 91.3699 274.11 79.6499 283.58C71.9999 288.07 67.0799 289.64 62.3299 293.58C61.0399 294.65 62.7699 295.01 61.5999 296.04C61.5999 296.04 49.1099 304.92 55.4099 305.09C56.4999 305.09 64.8299 301.97 65.5199 302.54C65.3799 302.64 59.0599 306.85 58.8299 306.84C118.32 283.49 178.75 255.56 238.27 234.42C259.8 226.3 279.04 218.24 298.21 210.19C322.47 204.94 346.65 199.68 370.93 194.29C371.55 194.29 372.86 196.47 373.14 196.52C373.09 196.52 371.91 194.76 371.53 194.15L372.37 193.96C376.32 197.02 379.84 193.49 383.06 191.57C388.54 189.17 396.52 191.57 401.14 189.12C405.31 186.39 413.42 189.12 417.58 186.25C420.41 184.34 420.31 177.8 423.16 175.92C424.13 175.33 425.06 174.9 423.54 172.27ZM326 70.52L326.48 70.24C325.21 71.1 323.91 71.98 322.6 72.84C323.687 72.0005 324.822 71.2258 326 70.52ZM343.13 165.52L342.94 165.61L343.33 165.42L343.13 165.52Z" fill="#DCFE54"></path></svg>